<?xml version="1.0" encoding="UTF-8" standalone="no"?>
<!DOCTYPE svg PUBLIC "-//W3C//DTD SVG 1.1//EN"
 "http://www.w3.org/Graphics/SVG/1.1/DTD/svg11.dtd">
<!-- Generated by graphviz version 6.0.2 (20221011.1828)
 -->
<!-- Title: include/MyLibrary/subclass&#45;example.hpp Pages: 1 -->
<svg width="184pt" height="148pt"
 viewBox="0.00 0.00 183.50 148.00" xmlns="http://www.w3.org/2000/svg" xmlns:xlink="http://www.w3.org/1999/xlink">
<g id="graph0" class="graph" transform="scale(1 1) rotate(0) translate(4 144)">
<title>include/MyLibrary/subclass&#45;example.hpp</title>
<!-- Node1 -->
<g id="node1" class="node">
<title>Node1</title>
<g id="a_node1"><a xlink:title=" ">
<polygon fill="#999999" stroke="#666666" points="135,-140 0,-140 0,-110 135,-110 135,-140"/>
<text text-anchor="start" x="8" y="-128" font-family="Helvetica,sans-Serif" font-size="10.00">include/MyLibrary/subclass</text>
<text text-anchor="middle" x="67.5" y="-117" font-family="Helvetica,sans-Serif" font-size="10.00">&#45;example.hpp</text>
</a>
</g>
</g>
<!-- Node2 -->
<g id="node2" class="node">
<title>Node2</title>
<g id="a_node2"><a xlink:title=" ">
<polygon fill="#e0e0e0" stroke="#999999" points="56,-19 15,-19 15,0 56,0 56,-19"/>
<text text-anchor="middle" x="35.5" y="-7" font-family="Helvetica,sans-Serif" font-size="10.00">string</text>
</a>
</g>
</g>
<!-- Node1&#45;&gt;Node2 -->
<g id="edge1" class="edge">
<title>Node1&#45;&gt;Node2</title>
<path fill="none" stroke="#63b8ff" d="M49.48,-109.89C39.46,-100.85 27.94,-88.17 22.5,-74 16.84,-59.24 21.3,-41.57 26.48,-28.61"/>
<polygon fill="#63b8ff" stroke="#63b8ff" points="29.72,-29.94 30.62,-19.38 23.34,-27.08 29.72,-29.94"/>
</g>
<!-- Node3 -->
<g id="node3" class="node">
<title>Node3</title>
<g id="a_node3"><a xlink:href="example_8hpp.html" target="_top" xlink:title=" ">
<polygon fill="white" stroke="#666666" points="103.5,-74 31.5,-74 31.5,-55 103.5,-55 103.5,-74"/>
<text text-anchor="middle" x="67.5" y="-62" font-family="Helvetica,sans-Serif" font-size="10.00">example.hpp</text>
</a>
</g>
</g>
<!-- Node1&#45;&gt;Node3 -->
<g id="edge2" class="edge">
<title>Node1&#45;&gt;Node3</title>
<path fill="none" stroke="#63b8ff" d="M67.5,-109.84C67.5,-102.21 67.5,-92.7 67.5,-84.45"/>
<polygon fill="#63b8ff" stroke="#63b8ff" points="71,-84.27 67.5,-74.27 64,-84.27 71,-84.27"/>
</g>
<!-- Node4 -->
<g id="node4" class="node">
<title>Node4</title>
<g id="a_node4"><a xlink:title=" ">
<polygon fill="#e0e0e0" stroke="#999999" points="175.5,-74 121.5,-74 121.5,-55 175.5,-55 175.5,-74"/>
<text text-anchor="middle" x="148.5" y="-62" font-family="Helvetica,sans-Serif" font-size="10.00">iostream</text>
</a>
</g>
</g>
<!-- Node1&#45;&gt;Node4 -->
<g id="edge4" class="edge">
<title>Node1&#45;&gt;Node4</title>
<path fill="none" stroke="#63b8ff" d="M87.11,-109.84C99.47,-100.91 115.4,-89.41 127.93,-80.35"/>
<polygon fill="#63b8ff" stroke="#63b8ff" points="130.3,-82.96 136.36,-74.27 126.21,-77.28 130.3,-82.96"/>
</g>
<!-- Node3&#45;&gt;Node2 -->
<g id="edge3" class="edge">
<title>Node3&#45;&gt;Node2</title>
<path fill="none" stroke="#63b8ff" d="M62.22,-54.75C57.79,-47.42 51.34,-36.73 45.88,-27.7"/>
<polygon fill="#63b8ff" stroke="#63b8ff" points="48.85,-25.84 40.69,-19.09 42.86,-29.46 48.85,-25.84"/>
</g>
</g>
</svg>
